<?xml version="1.0" encoding="UTF-8" standalone="no"?>
<!-- Created with Inkscape (http://www.inkscape.org/) -->

<svg
   xmlns:osb="http://www.openswatchbook.org/uri/2009/osb"
   xmlns:dc="http://purl.org/dc/elements/1.1/"
   xmlns:cc="http://creativecommons.org/ns#"
   xmlns:rdf="http://www.w3.org/1999/02/22-rdf-syntax-ns#"
   xmlns:svg="http://www.w3.org/2000/svg"
   xmlns="http://www.w3.org/2000/svg"
   xmlns:xlink="http://www.w3.org/1999/xlink"
   xmlns:sodipodi="http://sodipodi.sourceforge.net/DTD/sodipodi-0.dtd"
   xmlns:inkscape="http://www.inkscape.org/namespaces/inkscape"
   width="128"
   height="128"
   viewBox="0 0 33.866667 33.866667"
   version="1.1"
   id="svg915"
   inkscape:version="0.92.3 (2405546, 2018-03-11)"
   sodipodi:docname="logo.svg">
  <defs
     id="defs909">
    <linearGradient
       inkscape:collect="always"
       id="linearGradient1546">
      <stop
         style="stop-color:#000015;stop-opacity:1;"
         offset="0"
         id="stop1542" />
      <stop
         style="stop-color:#000015;stop-opacity:0;"
         offset="1"
         id="stop1544" />
    </linearGradient>
    <linearGradient
       id="linearGradient1518"
       osb:paint="solid">
      <stop
         style="stop-color:#ffffff;stop-opacity:1;"
         offset="0"
         id="stop1516" />
    </linearGradient>
    <linearGradient
       inkscape:collect="always"
       xlink:href="#linearGradient1518"
       id="linearGradient1522"
       x1="2.1388074"
       y1="314.66411"
       x2="23.533752"
       y2="314.66411"
       gradientUnits="userSpaceOnUse" />
    <linearGradient
       inkscape:collect="always"
       xlink:href="#linearGradient1546"
       id="linearGradient1548"
       x1="152.54284"
       y1="253.27457"
       x2="167.03142"
       y2="253.27457"
       gradientUnits="userSpaceOnUse" />
  </defs>
  <sodipodi:namedview
     id="base"
     pagecolor="#ffffff"
     bordercolor="#666666"
     borderopacity="1.0"
     inkscape:pageopacity="0.0"
     inkscape:pageshadow="2"
     inkscape:zoom="5.6"
     inkscape:cx="72.000588"
     inkscape:cy="58.888553"
     inkscape:document-units="mm"
     inkscape:current-layer="layer1"
     showgrid="false"
     units="px"
     width="128px"
     inkscape:window-width="1920"
     inkscape:window-height="1027"
     inkscape:window-x="1912"
     inkscape:window-y="508"
     inkscape:window-maximized="1" />
  <metadata
     id="metadata912">
    <rdf:RDF>
      <cc:Work
         rdf:about="">
        <dc:format>image/svg+xml</dc:format>
        <dc:type
           rdf:resource="http://purl.org/dc/dcmitype/StillImage" />
        <dc:title></dc:title>
      </cc:Work>
    </rdf:RDF>
  </metadata>
  <g
     inkscape:label="Layer 1"
     inkscape:groupmode="layer"
     id="layer1"
     transform="translate(0,-263.13333)">
    <g
       aria-label="N"
       style="font-style:normal;font-variant:normal;font-weight:normal;font-stretch:normal;font-size:10.58333302px;line-height:1.25;font-family:'Mr Dafoe';-inkscape-font-specification:'Mr Dafoe, Normal';font-variant-ligatures:normal;font-variant-caps:normal;font-variant-numeric:normal;font-feature-settings:normal;text-align:start;letter-spacing:0px;word-spacing:0px;writing-mode:lr-tb;text-anchor:start;fill:#5b2d6f;fill-opacity:1;stroke:url(#linearGradient1548);stroke-width:0.26458332;stroke-opacity:0"
       id="text4703"
       transform="matrix(1.6396886,0,0,1.3298696,-244.16878,-61.72948)">
      <path
         d="m 161.77683,248.67915 c 0.20461,-0.16933 0.43745,-0.254 0.6985,-0.254 0.26105,0 0.39158,0.0529 0.39158,0.15875 0,0.0423 -0.0317,0.10583 -0.0952,0.1905 -0.0565,0.127 -0.32105,0.60678 -0.79375,1.43933 -1.23472,2.159 -1.85208,3.59833 -1.85208,4.318 0,0.0565 0.0141,0.0847 0.0423,0.0847 0.0423,0 0.11289,-0.0706 0.21167,-0.21167 0.28928,-0.50094 0.6597,-1.07597 1.11125,-1.72508 0.45155,-0.64911 0.87841,-1.22061 1.28058,-1.7145 0.40217,-0.49389 0.85725,-0.95603 1.36525,-1.38642 0.508,-0.43039 0.97014,-0.6985 1.38642,-0.80433 0.69145,-0.11289 1.13947,-0.16933 1.34408,-0.16933 0.0211,0.007 0.0317,0.0247 0.0317,0.0529 0,0.0211 -0.0388,0.0529 -0.11641,0.0952 -0.79728,0.4445 -1.78859,1.29117 -2.97392,2.54 -1.17828,1.24178 -2.24367,2.51884 -3.19617,3.83117 -0.254,0.43039 -0.45155,0.6985 -0.59266,0.80433 -0.14111,0.10583 -0.2227,-0.0978 -0.508,0.15875 -2.10615,1.89396 -3.01823,2.76121 -2.04582,1.30758 0.15917,-0.23794 0.39398,-0.52701 0.65556,-0.89571 0.36262,-0.51111 0.62003,-1.22404 0.71489,-1.56292 0.11114,-0.39705 0.19206,-0.6975 0.32612,-1.05028 0.49389,-1.31939 0.95602,-2.26483 1.38641,-2.83633 0.23989,-0.35278 0.35984,-0.54681 0.35984,-0.58209 0,-0.0211 -0.0423,0.0212 -0.127,0.127 -1.75683,2.20839 -2.99861,3.65478 -3.72534,4.33917 -0.50094,0.52211 -1.06891,1.05834 -1.70391,1.60867 -0.635,0.55033 -1.143,0.9278 -1.524,1.13241 -0.11995,0.0988 -0.24695,0.14817 -0.381,0.14817 -0.13406,0 -0.29634,-0.0564 -0.48684,-0.16933 -0.1905,-0.11289 -0.28575,-0.24342 -0.28575,-0.39159 0,-0.0776 0.0423,-0.14816 0.127,-0.21166 l 1.73567,-1.4605 c 0.10583,-0.0917 0.17286,-0.13759 0.20108,-0.13759 0.0211,0 0.0317,0.0141 0.0317,0.0423 0,0.0211 -0.0106,0.0529 -0.0317,0.0952 -0.0212,0.0423 -0.0529,0.0882 -0.0952,0.13758 -0.0494,0.0494 -0.0988,0.0953 -0.14816,0.13758 l -0.17992,0.1905 c -0.21872,0.21873 -0.32808,0.33867 -0.32808,0.35984 0,0.0282 0.007,0.0423 0.0212,0.0423 0.0141,0 0.0494,-0.0212 0.10584,-0.0635 0.67733,-0.46567 1.65453,-1.34056 2.93158,-2.62467 1.27705,-1.29117 2.38478,-2.46239 3.32317,-3.51366 z"
         style="stroke-width:0.26458332;stroke:url(#linearGradient1548);stroke-opacity:0;fill:#5b2d6f;fill-opacity:1"
         id="path4709"
         inkscape:connector-curvature="0"
         sodipodi:nodetypes="cssccsscsscccsccccssssccsccscscsccssccccsscccc" />
    </g>
    <text
       xml:space="preserve"
       style="font-style:normal;font-variant:normal;font-weight:normal;font-stretch:normal;font-size:15.62815571px;line-height:1.25;font-family:'Mr Dafoe';-inkscape-font-specification:'Mr Dafoe, Normal';font-variant-ligatures:normal;font-variant-caps:normal;font-variant-numeric:normal;font-feature-settings:normal;text-align:start;letter-spacing:0px;word-spacing:0px;writing-mode:lr-tb;text-anchor:start;fill:#5b2d6f;fill-opacity:1;stroke:none;stroke-width:0.39070383;stroke-opacity:1;"
       x="8.1790895"
       y="318.2117"
       id="text4707"
       transform="scale(1.1103916,0.90058318)"><tspan
         sodipodi:role="line"
         id="tspan4705"
         x="8.1790895"
         y="318.2117"
         style="stroke-width:0.39070383;stroke:none;stroke-opacity:1;fill:#5b2d6f;fill-opacity:1;">N</tspan></text>
    <circle
       style="fill:none;fill-opacity:1;stroke:#009aff;stroke-width:0.32654062;stroke-opacity:1"
       id="path868"
       cx="16.904797"
       cy="280.09521"
       r="16.740185" />
    <path
       style="fill:none;fill-opacity:1;stroke:none;stroke-width:0.12626907;stroke-opacity:1"
       d="M 62.953583,1.0069983 C 56.541107,0.940568 50.165911,2.1657503 44.079084,4.127536 30.173831,8.6972909 17.977544,18.269556 10.281871,30.726593 1.5510052,44.613057 -1.4217968,61.983232 2.2645425,77.972967 c 1.5313271,6.592547 4.0281692,13.011107 7.5719215,18.773511 0.709475,0.590699 1.401494,-0.454857 2.041116,-0.746169 2.8922,-1.959214 5.764979,-3.947062 8.667353,-5.891247 -0.961894,0.880217 -2.137449,1.587834 -2.897037,2.659543 -0.337927,0.757853 0.723283,1.20567 1.23507,0.697192 6.584139,-3.874236 12.570738,-8.66294 18.505013,-13.448843 5.316884,-4.399629 10.672631,-8.765739 15.741278,-13.452141 2.522785,-2.928161 5.482068,-5.641079 7.243208,-9.179415 1.731063,-3.249554 2.555976,-6.883954 4.233931,-10.160897 2.339518,-4.896697 4.953617,-9.656007 8.598398,-13.722728 0.387751,-0.469181 1.157849,-1.29291 0.359336,-1.783769 -0.822654,-0.176657 -1.253786,0.810676 -1.845666,1.208945 -7.609276,7.356203 -14.897514,15.109949 -23.255983,21.598158 -6.084914,4.805726 -12.291385,9.576366 -19.342843,12.90238 -1.26427,0.0703 -2.555357,1.88e-4 -3.677429,-0.648218 -0.670622,-0.319975 -1.621044,-0.776764 -1.553119,-1.643367 2.097665,-1.691605 4.409389,-3.131777 6.608918,-4.697463 1.217875,-0.83589 2.437306,-1.669575 3.664007,-2.492476 -1.000668,0.889667 -2.18455,1.635988 -2.970529,2.733528 -0.360032,0.709287 0.626232,1.238263 1.145778,0.74387 7.459432,-4.370292 14.137137,-9.914281 20.832575,-15.346743 8.190582,-6.721711 16.127982,-13.742863 23.945,-20.89364 1.176126,-0.98497 2.228624,-2.120444 3.495698,-2.986205 1.585416,-0.864932 3.475937,-0.94943 5.21723,-0.625673 0.203185,0.277966 -0.385366,0.671021 -0.475043,0.954897 -5.082897,7.627892 -10.771194,14.930109 -14.724596,23.244373 -0.810043,1.905089 -1.736097,3.918697 -1.601052,6.034034 0.09128,0.787844 1.099437,0.824016 1.522627,0.280899 1.860923,-1.83539 3.206904,-4.114781 4.920738,-6.082011 4.522795,-5.482539 9.2635,-10.846614 14.621273,-15.499805 3.594963,-2.867569 7.37396,-5.766401 11.821056,-7.09458 2.64695,-0.708932 5.41684,-0.671441 8.10347,-1.171496 0.76017,-0.352648 0.19602,-1.174642 -0.24396,-1.53885 C 100.81572,11.214266 88.870661,4.603321 76.057427,2.1257625 72.123231,1.2982655 68.106134,0.94208453 64.088037,1.0040281 c -0.378149,-0.00189 -0.756305,0.0024 -1.134454,0.00297 z"
       id="path1552"
       inkscape:connector-curvature="0"
       transform="matrix(0.26458333,0,0,0.26458333,0,263.13333)" />
    <path
       style="fill:#f156c6;fill-opacity:1;stroke:#f1bac6;stroke-width:0.12472441;stroke-opacity:1;opacity:1;stroke-miterlimit:4;stroke-dasharray:none;stroke-dashoffset:0"
       d="M 9.9430346,95.901656 C 9.3867798,95.015174 7.8874587,92.149823 7.1184797,90.503653 0.59524017,76.539211 -0.49865535,60.28868 4.0925749,45.551865 6.4023791,38.137913 10.235079,30.898543 14.955687,25.033141 c 1.976158,-2.455393 5.363742,-6.00419 7.655668,-8.019992 8.630451,-7.5906825 19.814369,-12.8593441 31.219697,-14.7073699 3.1359,-0.5081155 4.952148,-0.6570569 8.816915,-0.723031 3.902043,-0.06661 6.276114,0.040385 9.208325,0.4150025 9.344027,1.1937881 18.610005,4.6311349 26.500198,9.8306264 3.42991,2.260251 6.30637,4.601808 9.46736,7.706836 l 2.19057,2.151798 -0.73848,0.09393 c -0.40617,0.05166 -2.10525,0.257781 -3.77574,0.458047 -2.58916,0.310401 -3.24118,0.433227 -4.41942,0.832525 -3.263756,1.106065 -7.323682,3.642607 -11.799357,7.371949 -4.328805,3.606963 -12.524632,12.69073 -17.474789,19.368012 -1.033483,1.39407 -1.742834,2.116981 -2.077267,2.116981 -0.248192,0 -0.166999,-1.28022 0.161291,-2.543125 1.056199,-4.063133 4.453585,-9.98499 11.689029,-20.374711 3.59647,-5.164344 4.948316,-7.228024 4.901355,-7.482238 -0.143121,-0.774765 -2.938818,-0.985327 -4.838897,-0.364448 -0.555584,0.181545 -1.217822,0.458738 -1.471642,0.615985 -0.253819,0.157247 -2.526662,2.164147 -5.050763,4.45978 -16.007274,14.558387 -29.944909,26.082781 -38.618787,31.932112 -3.422363,2.307911 -5.906873,3.639556 -4.733359,2.536979 0.207392,-0.194855 1.058929,-0.918912 1.892305,-1.609015 0.833376,-0.690103 1.705293,-1.43439 1.937594,-1.653968 0.748016,-0.707053 0.971197,-1.46368 0.386648,-1.310817 -0.129674,0.03391 -2.971602,1.927309 -6.315395,4.207552 -6.80932,4.643499 -6.667939,4.517286 -6.182777,5.519498 0.334135,0.69023 1.009395,1.170781 2.458599,1.74967 0.883756,0.353018 1.177821,0.409117 2.159492,0.411966 l 1.136421,0.0033 2.020306,-1.035913 c 5.190711,-2.661537 11.344311,-6.957854 19.58472,-13.673643 4.517853,-3.681972 9.012775,-7.856466 17.253732,-16.023767 2.971274,-2.944718 5.436146,-5.3202 5.477494,-5.278852 0.07206,0.07206 -0.374303,0.64 -2.352814,2.993604 -1.937936,2.305337 -4.018281,5.733939 -6.423882,10.587155 -1.485879,2.997711 -2.090921,4.427612 -3.240681,7.658725 -1.239895,3.484423 -2.87503,6.276583 -5.186543,8.85656 -0.755394,0.843124 -2.012342,2.243496 -2.793221,3.111936 -3.525787,3.921142 -21.89171,19.03816 -29.516142,24.294782 -2.604408,1.795594 -5.687275,3.700882 -5.988244,3.700882 -0.32261,0 -0.03743,-0.296644 1.590152,-1.654096 0.949276,-0.791723 1.976418,-1.663833 2.282537,-1.938023 0.826974,-0.740717 1.125989,-1.458644 0.607522,-1.458644 -0.09202,0 -2.87557,1.846686 -6.185676,4.103745 -3.310104,2.25706 -6.043395,4.103745 -6.073979,4.103745 -0.03058,0 -0.189311,-0.213079 -0.3527274,-0.473509 z"
       id="path1580"
       inkscape:connector-curvature="0"
       transform="matrix(0.26458333,0,0,0.26458333,0,263.13333)" />
    <path
       style="fill:#f156c6;fill-opacity:1;stroke:#f1bac6;stroke-width:0.12472441;stroke-opacity:1;opacity:1;stroke-miterlimit:4;stroke-dasharray:none;stroke-dashoffset:0"
       d="m 59.734461,126.60189 c -2.085276,-0.17866 -4.614289,-0.4852 -6.153079,-0.7458 -10.958133,-1.8558 -20.842692,-6.35119 -29.513464,-13.42241 -2.054033,-1.67511 -6.565631,-6.15474 -8.224976,-8.1667 -1.398198,-1.69531 -3.382532,-4.348951 -3.30788,-4.423603 0.02676,-0.02676 0.38716,0.04033 0.800892,0.149086 1.421244,0.373597 2.114604,0.225807 4.415766,-0.94124 2.369513,-1.20171 4.102245,-2.228941 6.645492,-3.939705 4.354233,-2.928957 6.9466,-4.885825 13.539833,-10.220645 3.84269,-3.109257 8.824414,-7.761561 16.801091,-15.690107 3.123888,-3.105039 5.704137,-5.621182 5.733888,-5.591431 0.05398,0.05398 -1.04637,1.439905 -2.756099,3.471406 -2.194735,2.607787 -4.886961,7.142195 -7.253498,12.216777 -1.321639,2.833997 -1.600641,3.826289 -1.680638,5.977284 -0.124558,3.349248 0.657203,5.364549 2.328586,6.002855 0.42487,0.16226 0.787295,0.193274 1.593605,0.136372 2.025426,-0.142936 3.185369,-0.870035 4.977479,-3.120085 3.302631,-4.146555 10.006634,-10.994271 16.449434,-16.802056 9.194016,-8.287837 16.048751,-13.379616 22.072538,-16.395745 1.076966,-0.53924 1.787828,-0.967031 1.757953,-1.057922 -0.111537,-0.33934 -2.092362,-0.234304 -6.688596,0.354672 -2.829997,0.362645 -3.948828,0.700455 -6.502477,1.963305 -4.01274,1.984411 -8.511581,5.420104 -13.041907,9.959897 -4.408263,4.417475 -9.440359,10.235345 -13.291092,15.366527 -1.259453,1.678249 -1.878933,2.318174 -2.244108,2.318174 -0.116875,0 -0.139082,-0.261974 -0.0883,-1.04172 0.218679,-3.357775 3.835749,-10.173226 10.464515,-19.71772 1.136856,-1.636915 2.976148,-4.307582 4.087316,-5.934818 2.334432,-3.41863 3.685687,-4.953835 9.343911,-10.615923 10.86521,-10.872629 22.053514,-19.828718 29.319434,-23.469819 l 1.41397,-0.70857 1.03011,1.22889 c 14.05119,16.762645 18.40336,39.408395 11.5446,60.070277 -1.97099,5.93755 -4.87918,11.66676 -8.47242,16.690857 -6.44356,9.00944 -15.43549,16.36842 -25.353872,20.74956 -6.192983,2.73556 -11.938683,4.294 -18.888868,5.12334 -1.615956,0.19282 -9.366222,0.35465 -10.859139,0.22674 z"
       id="path1582"
       inkscape:connector-curvature="0"
       transform="matrix(0.26458333,0,0,0.26458333,0,263.13333)" />
  </g>
</svg>
